<svg id="visual" viewBox="0 0 1920 1280" width="1920" height="1280" xmlns="http://www.w3.org/2000/svg" xmlns:xlink="http://www.w3.org/1999/xlink" version="1.1"><rect x="0" y="0" width="1920" height="1280" fill="#000"></rect><defs><linearGradient id="grad1_0" x1="33.3%" y1="0%" x2="100%" y2="100%"><stop offset="20%" stop-color="#000000" stop-opacity="1"></stop><stop offset="80%" stop-color="#000000" stop-opacity="1"></stop></linearGradient></defs><defs><linearGradient id="grad2_0" x1="0%" y1="0%" x2="66.7%" y2="100%"><stop offset="20%" stop-color="#000000" stop-opacity="1"></stop><stop offset="80%" stop-color="#000000" stop-opacity="1"></stop></linearGradient></defs><g transform="translate(1920, 0)"><path d="M0 807.6C-84.6 730.9 -169.2 654.2 -251.8 607.9C-334.4 561.7 -414.9 545.9 -504.9 504.9C-594.8 463.8 -694.1 397.4 -746.2 309.1C-798.2 220.7 -802.9 110.4 -807.6 0L0 0Z" fill="#0060ff"></path></g><g transform="translate(0, 1280)"><path d="M0 -807.6C119.6 -810.7 239.2 -813.8 309.1 -746.2C379 -678.6 399.1 -540.3 457.5 -457.5C515.9 -374.7 612.5 -347.5 677.2 -280.5C741.9 -213.5 774.8 -106.8 807.6 0L0 0Z" fill="#0060ff"></path></g></svg>