<svg id="visual" viewBox="0 0 1920 1280" width="1920" height="1280" xmlns="http://www.w3.org/2000/svg" xmlns:xlink="http://www.w3.org/1999/xlink" version="1.1"><rect x="0" y="0" width="1920" height="1280" fill="#000"></rect><defs><linearGradient id="grad1_0" x1="33.3%" y1="0%" x2="100%" y2="100%"><stop offset="20%" stop-color="#000000" stop-opacity="1"></stop><stop offset="80%" stop-color="#000000" stop-opacity="1"></stop></linearGradient></defs><defs><linearGradient id="grad2_0" x1="0%" y1="0%" x2="66.7%" y2="100%"><stop offset="20%" stop-color="#000000" stop-opacity="1"></stop><stop offset="80%" stop-color="#000000" stop-opacity="1"></stop></linearGradient></defs><g transform="translate(1920, 0)"><path d="M0 692.3C-82.5 666.5 -165.1 640.7 -253.7 612.5C-342.4 584.4 -437.2 553.9 -489.5 489.5C-541.8 425.1 -551.6 326.8 -578.3 239.6C-605.1 152.3 -648.7 76.2 -692.3 0L0 0Z" fill="#0060ff"></path></g><g transform="translate(0, 1280)"><path d="M0 -692.3C87.9 -680.8 175.8 -669.4 264.9 -639.6C354 -609.8 444.4 -561.5 487.9 -487.9C531.4 -414.3 528.1 -315.2 554.3 -229.6C580.6 -144.1 636.4 -72 692.3 0L0 0Z" fill="#0060ff"></path></g></svg>