<svg id="visual" viewBox="0 0 1920 1280" width="1920" height="1280" xmlns="http://www.w3.org/2000/svg" xmlns:xlink="http://www.w3.org/1999/xlink" version="1.1"><rect x="0" y="0" width="1920" height="1280" fill="#000"></rect><defs><linearGradient id="grad1_0" x1="33.3%" y1="100%" x2="100%" y2="0%"><stop offset="20%" stop-color="#000000" stop-opacity="1"></stop><stop offset="80%" stop-color="#000000" stop-opacity="1"></stop></linearGradient></defs><defs><linearGradient id="grad2_0" x1="0%" y1="100%" x2="66.7%" y2="0%"><stop offset="20%" stop-color="#000000" stop-opacity="1"></stop><stop offset="80%" stop-color="#000000" stop-opacity="1"></stop></linearGradient></defs><g transform="translate(1920, 1280)"><path d="M-923 0C-893 -122.2 -862.9 -244.4 -797.3 -330.3C-731.7 -416.1 -630.5 -465.7 -557.9 -557.9C-485.3 -650.1 -441.4 -784.8 -353.2 -852.8C-265 -920.7 -132.5 -921.9 0 -923L0 0Z" fill="#0060ff"></path></g><g transform="translate(0, 0)"><path d="M923 0C901.4 115.2 879.8 230.4 840.7 348.2C801.6 466.1 745 586.5 652.7 652.7C560.4 718.9 432.4 730.8 317.6 766.8C202.9 802.8 101.5 862.9 0 923L0 0Z" fill="#0060ff"></path></g></svg>