<svg id="visual" viewBox="0 0 1920 1280" width="1920" height="1280" xmlns="http://www.w3.org/2000/svg" xmlns:xlink="http://www.w3.org/1999/xlink" version="1.1"><rect x="0" y="0" width="1920" height="1280" fill="#000"></rect><defs><linearGradient id="grad1_0" x1="33.3%" y1="100%" x2="100%" y2="0%"><stop offset="20%" stop-color="#000000" stop-opacity="1"></stop><stop offset="80%" stop-color="#000000" stop-opacity="1"></stop></linearGradient></defs><defs><linearGradient id="grad2_0" x1="0%" y1="100%" x2="66.7%" y2="0%"><stop offset="20%" stop-color="#000000" stop-opacity="1"></stop><stop offset="80%" stop-color="#000000" stop-opacity="1"></stop></linearGradient></defs><g transform="translate(1920, 1280)"><path d="M-807.6 0C-730.9 -84.6 -654.2 -169.2 -607.9 -251.8C-561.7 -334.4 -545.9 -414.9 -504.9 -504.9C-463.8 -594.8 -397.4 -694.1 -309.1 -746.2C-220.7 -798.2 -110.4 -802.9 0 -807.6L0 0Z" fill="#0060ff"></path></g><g transform="translate(0, 0)"><path d="M807.6 0C810.7 119.6 813.8 239.2 746.2 309.1C678.6 379 540.3 399.1 457.5 457.5C374.7 515.9 347.5 612.5 280.5 677.2C213.5 741.9 106.8 774.8 0 807.6L0 0Z" fill="#0060ff"></path></g></svg>