<svg id="visual" viewBox="0 0 1920 1280" width="1920" height="1280" xmlns="http://www.w3.org/2000/svg" xmlns:xlink="http://www.w3.org/1999/xlink" version="1.1"><rect x="0" y="0" width="1920" height="1280" fill="#000"></rect><path d="M0 589L64 679.2C128 769.3 256 949.7 384 973.5C512 997.3 640 864.7 768 804.2C896 743.7 1024 755.3 1152 808C1280 860.7 1408 954.3 1536 908.5C1664 862.7 1792 677.3 1856 584.7L1920 492L1920 1281L1856 1281C1792 1281 1664 1281 1536 1281C1408 1281 1280 1281 1152 1281C1024 1281 896 1281 768 1281C640 1281 512 1281 384 1281C256 1281 128 1281 64 1281L0 1281Z" fill="#0060ff" stroke-linecap="round" stroke-linejoin="miter"></path></svg>